<svg xmlns="http://www.w3.org/2000/svg" width="1300" height="822" viewBox="0 0 1300 822" font-family="Inter, Segoe UI, Arial, sans-serif">
<rect width="1300" height="822" fill="#ffffff"/>
<text x="90" y="40" font-size="26" font-weight="600" fill="#0b0b0b">Three construction management tasks, three models, one platform</text>
<text x="90" y="66" font-size="15" fill="#52514e">Score relative to our baseline runs (1.00 = DeepSeek V4 Pro, MiniMax M3 and GLM 5.3 Flash, with a planner in the loop). One run per task, follow-ups counted against the score.</text>
<line x1="90" x2="1260" y1="510.0" y2="510.0" stroke="#e6e5e1" stroke-width="1"/>
<text x="80" y="515.0" font-size="13" text-anchor="end" fill="#52514e">0.0</text>
<line x1="90" x2="1260" y1="440.0" y2="440.0" stroke="#e6e5e1" stroke-width="1"/>
<text x="80" y="445.0" font-size="13" text-anchor="end" fill="#52514e">0.2</text>
<line x1="90" x2="1260" y1="370.0" y2="370.0" stroke="#e6e5e1" stroke-width="1"/>
<text x="80" y="375.0" font-size="13" text-anchor="end" fill="#52514e">0.4</text>
<line x1="90" x2="1260" y1="300.0" y2="300.0" stroke="#e6e5e1" stroke-width="1"/>
<text x="80" y="305.0" font-size="13" text-anchor="end" fill="#52514e">0.6</text>
<line x1="90" x2="1260" y1="230.0" y2="230.0" stroke="#e6e5e1" stroke-width="1"/>
<text x="80" y="235.0" font-size="13" text-anchor="end" fill="#52514e">0.8</text>
<line x1="90" x2="1260" y1="160.0" y2="160.0" stroke="#e6e5e1" stroke-width="1"/>
<text x="80" y="165.0" font-size="13" text-anchor="end" fill="#52514e">1.0</text>
<line x1="90" x2="1260" y1="90.0" y2="90.0" stroke="#e6e5e1" stroke-width="1"/>
<text x="80" y="95.0" font-size="13" text-anchor="end" fill="#52514e">1.2</text>
<path d="M142.2,510.0 v-216.0 q0,-4 4,-4 h48 q4,0 4,4 v216.0 z" fill="#2a78d6"/>
<text x="170.2" y="283.0" font-size="14" font-weight="600" text-anchor="middle" fill="#0b0b0b">0.63</text>
<path d="M208.2,510.0 v-336.0 q0,-4 4,-4 h48 q4,0 4,4 v336.0 z" fill="#eb6834"/>
<text x="236.2" y="153.0" font-size="14" font-weight="600" text-anchor="middle" fill="#0b0b0b">0.97</text>
<path d="M274.2,510.0 v-256.0 q0,-4 4,-4 h48 q4,0 4,4 v256.0 z" fill="#1baf7a"/>
<text x="302.2" y="243.0" font-size="14" font-weight="600" text-anchor="middle" fill="#0b0b0b">0.74</text>
<text x="236.2" y="536" font-size="15" font-weight="600" text-anchor="middle" fill="#0b0b0b">Pour-day dispatch + markup</text>
<path d="M434.8,510.0 v-220.0 q0,-4 4,-4 h48 q4,0 4,4 v220.0 z" fill="#2a78d6"/>
<text x="462.8" y="279.0" font-size="14" font-weight="600" text-anchor="middle" fill="#0b0b0b">0.64</text>
<path d="M500.8,510.0 v-322.7 q0,-4 4,-4 h48 q4,0 4,4 v322.7 z" fill="#eb6834"/>
<text x="528.8" y="176.3" font-size="14" font-weight="600" text-anchor="middle" fill="#0b0b0b">0.93</text>
<path d="M566.8,510.0 v-238.7 q0,-4 4,-4 h48 q4,0 4,4 v238.7 z" fill="#1baf7a"/>
<text x="594.8" y="260.3" font-size="14" font-weight="600" text-anchor="middle" fill="#0b0b0b">0.69</text>
<text x="528.8" y="536" font-size="15" font-weight="600" text-anchor="middle" fill="#0b0b0b">EOT claim assessment</text>
<path d="M727.2,510.0 v-155.2 q0,-4 4,-4 h48 q4,0 4,4 v155.2 z" fill="#2a78d6"/>
<text x="755.2" y="343.8" font-size="14" font-weight="600" text-anchor="middle" fill="#0b0b0b">0.45</text>
<path d="M793.2,510.0 v-288.7 q0,-4 4,-4 h48 q4,0 4,4 v288.7 z" fill="#eb6834"/>
<text x="821.2" y="210.3" font-size="14" font-weight="600" text-anchor="middle" fill="#0b0b0b">0.84</text>
<path d="M859.2,510.0 v-123.1 q0,-4 4,-4 h48 q4,0 4,4 v123.1 z" fill="#1baf7a"/>
<text x="887.2" y="375.9" font-size="14" font-weight="600" text-anchor="middle" fill="#0b0b0b">0.36</text>
<text x="821.2" y="536" font-size="15" font-weight="600" text-anchor="middle" fill="#0b0b0b">Baseline programme</text>
<path d="M1019.8,510.0 v-197.1 q0,-4 4,-4 h48 q4,0 4,4 v197.1 z" fill="#2a78d6"/>
<text x="1047.8" y="301.9" font-size="14" font-weight="600" text-anchor="middle" fill="#0b0b0b">0.57</text>
<path d="M1085.8,510.0 v-315.8 q0,-4 4,-4 h48 q4,0 4,4 v315.8 z" fill="#eb6834"/>
<text x="1113.8" y="183.2" font-size="14" font-weight="600" text-anchor="middle" fill="#0b0b0b">0.91</text>
<path d="M1151.8,510.0 v-205.9 q0,-4 4,-4 h48 q4,0 4,4 v205.9 z" fill="#1baf7a"/>
<text x="1179.8" y="293.1" font-size="14" font-weight="600" text-anchor="middle" fill="#0b0b0b">0.60</text>
<text x="1113.8" y="536" font-size="15" font-weight="600" text-anchor="middle" fill="#0b0b0b">Average</text>
<line x1="90" x2="1260" y1="160.0" y2="160.0" stroke="#52514e" stroke-width="2" stroke-dasharray="8 5"/>
<text x="1260" y="152.0" font-size="14" font-weight="600" text-anchor="end" fill="#52514e">baseline 1.00</text>
<rect x="90" y="554" width="14" height="14" rx="3" fill="#2a78d6"/>
<text x="110" y="566" font-size="14" fill="#0b0b0b">Claude Haiku 5.5</text>
<rect x="274" y="554" width="14" height="14" rx="3" fill="#eb6834"/>
<text x="294" y="566" font-size="14" fill="#0b0b0b">Claude Sonnet 5.5</text>
<rect x="466" y="554" width="14" height="14" rx="3" fill="#1baf7a"/>
<text x="486" y="566" font-size="14" fill="#0b0b0b">GPT-6 Luna</text>
<text x="90" y="600" font-size="18" font-weight="600" fill="#0b0b0b">What it took</text>
<text x="98" y="638" font-size="13" fill="#52514e"></text>
<text x="288" y="638" font-size="13" fill="#52514e">Score ÷ baseline</text>
<text x="408" y="638" font-size="13" fill="#52514e">Finished without a follow-up</text>
<text x="578" y="638" font-size="13" fill="#52514e">Reviewer approval</text>
<text x="708" y="638" font-size="13" fill="#52514e">Wall time per task</text>
<text x="838" y="638" font-size="13" fill="#52514e">Tool steps per task</text>
<text x="968" y="638" font-size="13" fill="#52514e">Input tokens per task</text>
<text x="1098" y="638" font-size="13" fill="#52514e">Cost per task (list price)</text>
<line x1="90" x2="1240" y1="650" y2="650" stroke="#e6e5e1" stroke-width="1"/>
<rect x="98" y="660" width="12" height="12" rx="3" fill="#2a78d6"/>
<text x="116" y="672" font-size="14" font-weight="600" fill="#0b0b0b">Claude Haiku 5.5</text>
<text x="288" y="672" font-size="14" font-weight="600" fill="#0b0b0b">0.57</text>
<text x="408" y="672" font-size="14" font-weight="400" fill="#0b0b0b">2 of 3</text>
<text x="578" y="672" font-size="14" font-weight="400" fill="#0b0b0b">0 of 3</text>
<text x="708" y="672" font-size="14" font-weight="400" fill="#0b0b0b">40 min</text>
<text x="838" y="672" font-size="14" font-weight="400" fill="#0b0b0b">81</text>
<text x="968" y="672" font-size="14" font-weight="400" fill="#0b0b0b">8 M</text>
<text x="1098" y="672" font-size="14" font-weight="400" fill="#0b0b0b">$0.33</text>
<line x1="90" x2="1240" y1="684" y2="684" stroke="#e6e5e1" stroke-width="1"/>
<rect x="98" y="694" width="12" height="12" rx="3" fill="#eb6834"/>
<text x="116" y="706" font-size="14" font-weight="600" fill="#0b0b0b">Claude Sonnet 5.5</text>
<text x="288" y="706" font-size="14" font-weight="600" fill="#0b0b0b">0.91</text>
<text x="408" y="706" font-size="14" font-weight="400" fill="#0b0b0b">3 of 3</text>
<text x="578" y="706" font-size="14" font-weight="400" fill="#0b0b0b">1 of 3</text>
<text x="708" y="706" font-size="14" font-weight="400" fill="#0b0b0b">69 min</text>
<text x="838" y="706" font-size="14" font-weight="400" fill="#0b0b0b">150</text>
<text x="968" y="706" font-size="14" font-weight="400" fill="#0b0b0b">18 M</text>
<text x="1098" y="706" font-size="14" font-weight="400" fill="#0b0b0b">$15.67</text>
<line x1="90" x2="1240" y1="718" y2="718" stroke="#e6e5e1" stroke-width="1"/>
<rect x="98" y="728" width="12" height="12" rx="3" fill="#1baf7a"/>
<text x="116" y="740" font-size="14" font-weight="600" fill="#0b0b0b">GPT-6 Luna</text>
<text x="288" y="740" font-size="14" font-weight="600" fill="#0b0b0b">0.60</text>
<text x="408" y="740" font-size="14" font-weight="400" fill="#0b0b0b">1 of 3</text>
<text x="578" y="740" font-size="14" font-weight="400" fill="#0b0b0b">1 of 3</text>
<text x="708" y="740" font-size="14" font-weight="400" fill="#0b0b0b">184 min</text>
<text x="838" y="740" font-size="14" font-weight="400" fill="#0b0b0b">596</text>
<text x="968" y="740" font-size="14" font-weight="400" fill="#0b0b0b">87 M</text>
<text x="1098" y="740" font-size="14" font-weight="400" fill="#0b0b0b">$1.52</text>
<line x1="90" x2="1240" y1="752" y2="752" stroke="#e6e5e1" stroke-width="1"/>
<text x="90" y="776" font-size="12" fill="#52514e">Averages over the three tasks. Follow-up = the model stopped or asked and had to be told to continue. Reviewer approval = our independent review seat accepted the deliverable.</text>
<text x="90" y="794" font-size="12" fill="#52514e">Cost from published per-token prices, prompt-cache reads included. Scoring method and every output: github.com/AshrafMMahdy/conmgmt-bench</text>
</svg>